<svg fill="none" height="96" viewBox="0 0 96 96" width="96" xmlns="http://www.w3.org/2000/svg"><path d="m67.0174 48.3468c0 10.32-8.356 18.6666-18.6667 18.6666-10.3093 0-18.6666-8.3466-18.6666-18.6666 0-10.3067 8.3573-18.6667 18.6666-18.6667 10.3107 0 18.6667 8.36 18.6667 18.6667z" fill="#fbca07"/><path d="m67.016 48.5735v-.0133zm.0013-.0667v-.0267zm0-.0666v-.0267z" fill="#c2ebee"/><path d="m59.3841 63.3867c2.2733-3.0933 3.6333-6.9068 3.6333-11.0401 0-10.3067-8.3573-18.6667-18.6667-18.6667-4.1333 0-7.94 1.3602-11.0333 3.6402 3.344-4.5467 8.6853-7.5468 14.7426-7.6402h.0094.056.02.048.0226.0467.0214.0666c10.3107 0 18.6667 8.36 18.6667 18.6667v.0667.0267.0399.0267c0 .0134 0 .0401-.0014.0534v.0133.0534.0133c-.0933 6.0533-3.0839 11.4001-7.6319 14.7467" fill="#fbe765"/><g fill="#2d3e68"><path d="m67.0173 48.3467h-1.3334c0 4.8-1.9373 9.12-5.076 12.2666-3.1413 3.1334-7.4653 5.0667-12.2573 5.0667-4.7907 0-9.116-1.9333-12.256-5.0667-3.1387-3.1466-5.076-7.4666-5.0773-12.2666.0013-4.7867 1.9386-9.1066 5.0773-12.2533 3.14-3.1333 7.4653-5.0801 12.256-5.0801 4.792 0 9.116 1.9468 12.2573 5.0801 3.1387 3.1467 5.076 7.4666 5.076 12.2533h1.3334 1.3333c0-11.04-8.9533-20-20-20s-19.9987 8.96-20 20c.0013 11.0533 8.9533 20 20 20s20-8.9467 20-20z"/><path d="m47 8.33325v10.66665c0 .7334.596 1.3334 1.3333 1.3334.736 0 1.3334-.6 1.3334-1.3334v-10.66665c0-.73333-.5974-1.33333-1.3334-1.33333-.7373 0-1.3333.6-1.3333 1.33333z"/><path d="m47 77.68v10.6534c0 .7467.596 1.3333 1.3333 1.3333.736 0 1.3334-.5866 1.3334-1.3333v-10.6534c0-.7466-.5974-1.3333-1.3334-1.3333-.7373 0-1.3333.5867-1.3333 1.3333z"/><path d="m88.3333 47.0001h-10.664c-.7374 0-1.3334.6-1.3334 1.3333s.596 1.3333 1.3334 1.3333h10.664c.736 0 1.3333-.6 1.3333-1.3333s-.5973-1.3333-1.3333-1.3333z"/><path d="m18.9973 47.0001h-10.66397c-.73733 0-1.33333.6-1.33333 1.3333s.596 1.3333 1.33333 1.3333h10.66397c.736 0 1.3334-.6 1.3334-1.3333s-.5974-1.3333-1.3334-1.3333z"/><path d="m19.1054 21 7.54 7.5333c.52.52 1.364.52 1.8853 0 .5214-.52.5214-1.3599 0-1.8799l-7.5386-7.5468c-.5214-.52-1.3654-.52-1.8854 0-.5213.52-.5213 1.3734-.0013 1.8934z"/><path d="m68.1319 70.0266 7.5414 7.5334c.5213.52 1.3653.52 1.8866 0 .52-.52.52-1.3601 0-1.8801l-7.5426-7.5466c-.52-.52-1.364-.52-1.8854 0-.52.52-.52 1.3733 0 1.8933z"/><path d="m75.6733 19.1066-7.5414 7.5468c-.52.52-.52 1.3599 0 1.8799.5214.52 1.3654.52 1.8854 0l7.5426-7.5333c.52-.52.52-1.3734 0-1.8934-.5213-.52-1.3653-.52-1.8866 0z"/><path d="m26.6453 68.1333-7.5413 7.5466c-.5213.52-.5213 1.3601 0 1.8801.52.52 1.364.52 1.8853 0l7.5414-7.5334c.5213-.52.5213-1.3733 0-1.8933-.52-.52-1.3654-.52-1.8854 0z"/></g></svg>