<svg fill="none" height="96" viewBox="0 0 96 96" width="96" xmlns="http://www.w3.org/2000/svg"><path d="m50.5248 21.3277c1.7 3.16 2.6693 6.7733 2.6693 10.6 0 12.36-10.016 22.3733-22.368 22.3733-3.3987 0-6.608-.7867-9.492-2.1334 1.988 12.8534 13.0733 22.7067 26.492 22.7067 14.824 0 26.8413-12.0133 26.8413-26.84 0-13.9067-10.5866-25.3466-24.1426-26.7066z" fill="#ebf4fc"/><path d="m25.5755 53.6609c-1.452-.3467-2.8493-.8533-4.1773-1.4667 1.3227.6134 2.72 1.0934 4.1653 1.4534.004 0 .008.0133.012.0133z" fill="#dddaec"/><path d="m47.8261 74.8743c-13.4187 0-24.504-9.8533-26.492-22.7067.0213 0 .0427.0134.064.0267 1.328.6134 2.7253 1.12 4.1773 1.4667 4.812 7.1733 12.9707 11.8799 22.2507 11.8799 13.2413 0 24.216-9.5866 26.4146-22.2132.2707 1.5333.4267 3.1066.4267 4.7066 0 1.0533-.0613 2.08-.1773 3.1066-.0267.2134-.0547.44-.0854.6667-1.832 13.04-13.0333 23.0667-26.5786 23.0667z" fill="#c7cce7"/><path d="m50.5248 21.3278-1.1733.64c1.5987 2.96 2.5093 6.36 2.5093 9.96 0 5.8133-2.3519 11.0666-6.1613 14.88-3.8106 3.8-9.0613 6.16-14.8733 6.16-3.1947 0-6.2067-.7333-8.9253-2.0133-.4467-.2133-.9707-.1467-1.3667.1466-.3947.2934-.5934.7734-.5187 1.2667 2.088 13.5067 13.724 23.84 27.8107 23.84 15.5613 0 28.1733-12.6133 28.1747-28.1733-.0027-14.6-11.1094-26.6001-25.3427-28.0267-.492-.0534-.9694.1733-1.2427.5867-.2733.4133-.2987.9333-.064 1.3733l1.1733-.64-.132 1.3333c12.8774 1.28 22.9427 12.16 22.9414 25.3734-.0013 7.0533-2.8534 13.4133-7.472 18.0399-4.62 4.6134-10.988 7.4667-18.036 7.4667-12.7494.0133-23.2854-9.3599-25.1747-21.5866l-1.3173.2133-.568 1.2c3.0506 1.44 6.456 2.2667 10.06 2.2667 13.0893 0 23.7-10.6134 23.7013-23.7067 0-4.0533-1.0267-7.88-2.8293-11.2267l-1.1734.6267-.132 1.3333z" fill="#2d3e68"/></svg>