<svg fill="none" height="96" viewBox="0 0 96 96" width="96" xmlns="http://www.w3.org/2000/svg"><path d="m79.3973 61.3333c.5947-1.6667.9333-3.4534.9333-5.3334 0-8.84-7.164-16-15.9974-16-.5213 0-1.0345.0266-1.5425.08-3.148-7.8534-10.8174-13.4133-19.7921-13.4133-10.8853 0-19.8453 8.16-21.156 18.6933l-.1773-.0266c-7.3614 0-13.33595 5.9733-13.33595 13.3333 0 .92.0946 1.8133.26927 2.6667z" fill="#d1efed"/><path d="m88.3279 37.333c0-7.36-5.9613-13.32-13.3187-13.3333-2.612-6.2534-8.7892-10.6534-15.9972-10.6534-8.2547 0-15.1268 5.6667-16.8694 13.36.2866 0 .568-.04.856-.04 8.9746 0 16.644 5.56 19.792 13.4133.508-.0533 1.0213-.0799 1.5426-.0799 6.712 0 12.4494 4.1466 14.8241 10.0132 5.324-1.76 9.1706-6.7599 9.1706-12.6799" fill="#d1efed"/><path d="m79.1666 49.9998c-1.604-3.96-4.7493-7.1334-8.692-8.7734-.0013 0-.0027 0-.004 0-.0107 0-.024-.0134-.0346-.0134-1.88-.7866-3.9414-1.2132-6.1028-1.2132-.5213 0-1.0345.0266-1.5425.0799-.012-.0267-.0241-.0532-.0348-.0932-.0027 0-.0053-.0001-.008-.0134-.0093-.0267-.0186-.04-.0279-.0667-.004-.0133-.0068-.0134-.0094-.0267-.0094-.0267-.0187-.04-.028-.0667-.0027 0-.0053-.0132-.008-.0132-.0106-.0267-.02-.0533-.0307-.08-.0013 0-.004-.0134-.0066-.0134-.0107-.0267-.0227-.0533-.0334-.08-.0013 0-.0027 0-.004 0-.0373-.0933-.076-.1866-.116-.2666-.0013-.0134-.0039-.0134-.0052-.0134-.0107-.0267-.0214-.0533-.0334-.08-.0026 0-.0054-.0133-.008-.0133-.0107-.0266-.02-.0533-.0306-.0666-.0027-.0134-.0067-.0134-.0094-.0267-.0107-.0134-.0214-.04-.032-.0667-.0027 0-.0053-.0134-.008-.0134-.012-.0267-.024-.0533-.036-.0799-.0014 0-.0026-.0133-.0026-.0133-.0134-.0267-.0281-.0534-.0415-.0801-.0026-.0133-.0052-.0133-.0079-.0133-.0107-.0267-.0201-.0533-.0307-.0667-.0054-.0133-.012-.0266-.0173-.0399-.0067-.0134-.0147-.0268-.0227-.0401-.0067-.0267-.0133-.04-.0199-.0533-.0054-.0133-.0121-.0133-.0188-.0267-.0066-.0266-.0146-.04-.0226-.0534-.0054-.0133-.0094-.0132-.0147-.0265-.0094-.0267-.0186-.0401-.0266-.0534-.0027-.0133-.0054-.0133-.0068-.0133-3.4933-7.0267-10.7253-11.8534-19.0906-11.8534-.0293 0-.0587 0-.0893 0-.2547.0134-.508.0134-.7614.0267 1.7494-7.6933 8.6161-13.3467 16.8641-13.3467 7.208 0 13.3853 4.4 15.9973 10.6534 7.3573.0133 13.3186 5.9733 13.3186 13.3333 0 .3867-.0172.7733-.0492 1.1466-.0187.2267-.0428.4533-.0735.6667-.6933 5.1066-4.2733 9.2934-9.0386 10.8534" fill="#bbdee4"/><path d="m25.124 61.3333h-16.52538c-.176-.8534-.26927-1.7467-.26927-2.6667 0 .92.0946 1.8133.26927 2.6667z" fill="#e8e6f2"/><path d="m25.124 61.3333h-16.52538c-.17467-.8534-.26927-1.7467-.26927-2.6667.00133-7.36 5.97325-13.3333 13.33185-13.3333h.0015l.3387.2266c-.2067 1.24-.3387 2.4934-.3387 3.7734 0 4.4133 1.2826 8.52 3.4613 12" fill="#bbdee4"/><path d="m80.2932 57.0798c0-.0133.0013-.0265.0013-.0265s-.0013.0132-.0013.0265zm.0027-.0532c.0227-.3334.0347-.68.0347-1.0267 0 .3467-.012.6933-.0347 1.0267z" fill="#fff"/><path d="m79.3974 61.3333h-3.1347c-.6893-10.4134-9.3373-18.6667-19.932-18.6667-.3093 0-.6094.04-.9147.0534.4693-.32.964-.6 1.4667-.8667-5.3707-6.0267-13.1733-9.8534-21.8853-9.8534-2.412 0-4.748.32-6.9893.8667 3.3866-3.36 7.8826-5.6 12.9053-6.0934.4093-.0266.82-.0666 1.2346-.0799-.0013 0-.004.0133-.0053.0133.2573 0 .5093-.0267.7667-.04h.088c.6693 0 1.3267.0533 1.9827.1066.316.0267.6279.0667.9399.1067.236.0266.468.0667.7.1067 6.7974 1.1734 12.492 5.5467 15.4693 11.5334.0027 0 .0041-.0001.0068.0133.008.0133.0172.0267.0265.0533.0054.0134.0094.0133.0148.0266.008.0133.0159.0267.0226.0534.0067.0133.0134.0133.0188.0267.0066.0133.0145.0399.0199.0532.008.0134.016.0268.0226.0401.0054.0134.012.0267.0174.04.0106.0133.02.04.0307.0667.0026 0 .0053-.0001.0079.0133.0134.0266.0281.0534.0414.08 0 0 .0013.0133.0026.0133.012.0267.0241.0533.0361.08.0027 0 .0053.0134.0079.0134.0107.0266.0214.0533.0321.0666.0026.0134.0067.0134.0094.0267.0106.0134.0212.04.0306.0667.0026 0 .0054.0133.008.0133.012.0267.0227.0533.0334.0799.0013 0 .0038.0001.0052.0134.04.08.0786.1734.116.2667h.004c.0107.0267.0227.0533.0334.08.0026 0 .0053.0134.0066.0134.0107.0266.0201.0533.0307.0799.0027 0 .0053.0133.008.0133.0093.0267.0186.04.028.0667.0026.0133.0053.0133.0093.0267.0094.0266.0187.04.028.0666.0027.0134.0053.0134.008.0134.0106.04.0227.0666.0347.0933h.0881c.4786-.0534.9626-.08 1.4519-.08 2.1613 0 4.2227.4266 6.1053 1.2133.012 0 .0227.0134.0347.0134h.004c3.9387 1.64 7.0787 4.8133 8.6827 8.7866.0027-.0133.0066-.0133.0092-.0133.7494 1.8534 1.1628 3.88 1.1641 6 0 .3467-.012.6934-.0346 1.0267 0 .0133-.0001.0134-.0015.0267 0 0-.0013.0132-.0013.0266-.104 1.48-.4186 2.9067-.8972 4.2534" fill="#eaf8f7"/><g fill="#dff0f3"><path d="m79.1573 50.0129c-1.604-3.9733-4.744-7.1465-8.6827-8.7865 3.9427 1.64 7.0879 4.8133 8.6919 8.7733-.0026 0-.0065-.0001-.0092.0132z"/><path d="m70.4707 41.2266c-.012 0-.0227-.0134-.0347-.0134.0107 0 .024.0134.0347.0134z"/><path d="m62.7906 40.0798c-.012-.0266-.0241-.0532-.0347-.0932.0106.04.0227.0666.0347.0932z"/><path d="m62.748 39.9731c-.0094-.0266-.0187-.04-.028-.0666.0093.0266.0186.04.028.0666z"/><path d="m62.7106 39.8796c-.0093-.0266-.0186-.04-.028-.0666.0094.0266.0187.04.028.0666z"/><path d="m62.6745 39.7998c-.0106-.0267-.02-.0533-.0307-.0799.0107.0266.0201.0532.0307.0799z"/><path d="m62.6373 39.7063c-.0106-.0267-.0226-.0533-.0333-.0799.0107.0266.0227.0532.0333.0799z"/><path d="m62.4786 39.3464c-.0106-.0266-.0213-.0532-.0333-.0799.012.0267.0227.0533.0333.0799z"/><path d="m62.4373 39.2532c-.0093-.0267-.0199-.0534-.0306-.0667.0107.0133.02.04.0306.0667z"/><path d="m62.3973 39.1599c-.0107-.0133-.0214-.04-.0321-.0667.0107.0267.0214.0534.0321.0667z"/><path d="m62.3187 38.9866c-.0133-.0267-.028-.0534-.0414-.0801.0134.0267.0281.0534.0414.0801z"/><path d="m62.2693 38.8933c-.0107-.0267-.0201-.0533-.0308-.0667.0107.0134.0201.04.0308.0667z"/><path d="m62.2211 38.7864c-.0066-.0134-.0146-.0268-.0226-.0401.008.0133.016.0267.0226.0401z"/><path d="m62.1787 38.6931c-.0054-.0133-.0121-.0133-.0188-.0267.0067.0134.0134.0134.0188.0267z"/><path d="m62.1373 38.613c-.0054-.0133-.0094-.0132-.0147-.0265.0053.0133.0093.0132.0147.0265z"/><path d="m62.0959 38.5332c-.0027-.0133-.0041-.0133-.0068-.0133.0013 0 .0041 0 .0068.0133z"/><path d="m42.1426 26.7065c.0013 0 .004-.0132.0053-.0132.2533-.0134.5067-.0134.7613-.0267-.2573.0133-.5093.0399-.7666.0399"/></g><path d="m81.4266 53.1198c-1.376-8.2133-8.5054-14.4534-17.0934-14.4534-.572 0-1.1266.0267-1.6626.08l.1226 1.3333 1.2374-.5066c-3.3427-8.3334-11.4934-14.24-21.0307-14.24-11.5654 0-21.088 8.6667-22.4774 19.8534l1.3228.1599.1227-1.3199-.1774-.0267h-.1226c-6.0134 0-11.1867 3.6133-13.44807 8.8-.29467.68.01335 1.4667.68802 1.76s1.46135-.0134 1.75595-.6934c1.8534-4.24 6.0814-7.2 11.0041-7.2v-1.3333l-.1214 1.3333.1774.0133c.7173.0667 1.3559-.4532 1.4453-1.1599 1.2253-9.8666 9.6292-17.52 19.8306-17.52 8.4133 0 15.6026 5.2133 18.556 12.5733.2186.5466.7747.88 1.36.8267.48-.04.952-.0667 1.4173-.0667 7.264 0 13.3014 5.2934 14.4628 12.2267.1226.72.8092 1.2134 1.5359 1.0934.7253-.12 1.216-.8134 1.0947-1.5334" fill="#2d3e68"/><path d="m8.33333 62.6665h74.66407c.736 0 1.3333-.6 1.3333-1.3333 0-.7334-.5973-1.3334-1.3333-1.3334h-74.66407c-.73733 0-1.33333.6-1.33333 1.3334 0 .7333.596 1.3333 1.33333 1.3333z" fill="#2d3e68"/><path d="m13.6681 73.333h63.9932c.736 0 1.3333-.5867 1.3333-1.3333 0-.7334-.5973-1.3334-1.3333-1.3334h-63.9932c-.736 0-1.3334.6-1.3334 1.3334 0 .7466.5974 1.3333 1.3334 1.3333z" fill="#2d3e68"/><path d="m21.6705 84h50.6547c.736 0 1.3333-.5867 1.3333-1.3333 0-.7334-.5973-1.3334-1.3333-1.3334h-50.6547c-.736 0-1.3333.6-1.3333 1.3334 0 .7466.5973 1.3333 1.3333 1.3333z" fill="#2d3e68"/><path d="m79.5866 51.2666c5.8534-1.92 10.0747-7.44 10.0774-13.9333-.0013-8.0933-6.5573-14.6533-14.6507-14.6667l-.0013 1.3334 1.2306-.5201c-2.8106-6.7333-9.4653-11.4799-17.228-11.4799-8.8706 0-16.2999 6.0933-18.1852 14.3867-.164.72.2865 1.4266 1.0039 1.6.7186.16 1.4334-.2934 1.5961-1.0134 1.6146-7.08 7.9559-12.3067 15.5852-12.3067 6.6547 0 12.3547 4.0667 14.7667 9.84.208.5067.6906.8267 1.2293.8267 6.6213 0 11.9867 5.3733 11.9867 12 .0014 5.3067-3.4613 9.8267-8.244 11.4-.7.2267-1.08.9866-.8493 1.6799.2293.7067.9826 1.0801 1.6826.8534z" fill="#2d3e68"/></svg>