<svg fill="none" height="96" viewBox="0 0 96 96" width="96" xmlns="http://www.w3.org/2000/svg"><path d="m88.3293 60.3335c0-8.84-7.1626-16-15.9973-16-.52 0-1.0333.0266-1.5413.0799-3.148-7.8533-10.8173-13.4132-19.7907-13.4132-10.8853 0-19.8467 8.16-21.1573 18.6933l-.176-.0267c-7.3627 0-13.336 5.9734-13.336 13.3334 0 7.3733 5.9733 13.3333 13.336 13.3333h42.7573c8.792-.0533 15.9053-7.1867 15.9053-16z" fill="#d1efed"/><path d="m29.8426 49.6934c.8347-6.6933 4.768-12.4267 10.3187-15.7201h-.0054c-1.144-7.72-7.7946-13.6399-15.8226-13.6399-8.836 0-16.00005 7.1733-16.00005 16 0 8.0133 5.88935 14.6533 13.57735 15.8267l.0027.0132c2.1853-1.5733 4.8586-2.5066 7.7533-2.5066z" fill="#fbca07"/><path d="m21.9093 52.1599c-.028-.0133-.056-.0134-.084-.0134.028 0 .056.0001.084.0134z" fill="#e8e6f2"/><path d="m21.8174 52.1467c-.0267-.0133-.0533-.0133-.08-.0133.0267 0 .0533 0 .08.0133zm-.0946-.0265c-.0254 0-.0494 0-.0747 0zm-.1027-.0134c-.0133 0-.0267 0-.04 0z" fill="#e8e6f2"/><path d="m21.9107 52.1599s0 0-.0013 0c-.028-.0133-.056-.0134-.084-.0134-.0027 0-.0054 0-.008 0-.0267-.0133-.0534-.0133-.0801-.0133-.0053 0-.0093.0001-.0146-.0133-.0253 0-.0493 0-.0747 0-.0093-.0133-.0186-.0134-.028-.0134-.0133 0-.0266 0-.04 0-2.1186-.3733-4.0893-1.1733-5.836-2.2799.6294-.0934 1.268-.16 1.9213-.16l.1774.0266c1.3107-10.5333 10.2706-18.6933 21.156-18.6933.1413 0 .28.0133.42.0267.3333.9466.5853 1.9199.7373 2.9466h.0054c-5.5507 3.2933-9.4841 9.0267-10.3187 15.72l-.176-.0266c-.0014 0-.0027 0-.004 0-.004 0-.0067 0-.0107 0-.0226 0-.044 0-.0653 0-.0107 0-.02 0-.0293 0-.016 0-.032 0-.0467 0-.012 0-.0254 0-.0374 0-.0106 0-.0226 0-.0333 0-2.8053.0533-5.4013.96-7.5293 2.4933" fill="#dfb311"/><path d="m52.2867 76.3335h-22.62c-6.1427 0-11.3187-4.1467-12.8654-9.8 1.5467 5.6533 6.7227 9.8 12.8654 9.8h22.364zm-35.6494-10.4667c-.2013-.92-.3066-1.88-.3066-2.8666 0 .9866.1053 1.9466.3066 2.8666z" fill="#e8e6f2"/><path d="m16.8013 66.5334c-.06-.2266-.1146-.44-.164-.6666.0494.2266.104.44.164.6666z" fill="#80d5de"/><path d="m52.0307 76.3335h-22.364c-6.1427 0-11.3187-4.1467-12.8654-9.8-.06-.2267-.1146-.44-.164-.6667-.2013-.92-.3066-1.88-.3066-2.8666 0-4.4667 2.2026-8.4267 5.58-10.84l.0026.0133c2.128-1.5334 4.7187-2.4533 7.5267-2.5067h.0333.0374.0466.0294.0653.0107.0013l.3373.2267c-.2066 1.24-.3373 2.4933-.3373 3.7733 0 12.4267 9.9867 22.5067 22.3667 22.6667" fill="#bbdee4"/><path d="m21.9133 52.1733-.0027-.0132c2.128-1.5334 4.724-2.4401 7.5294-2.4934-2.808.0533-5.3987.9733-7.5267 2.5066zm7.56-2.5066h.0373c-.012 0-.0253 0-.0373 0zm.084 0h.0294c-.0107 0-.02 0-.0294 0zm.0947 0h.0107c-.004 0-.0067 0-.0107 0z" fill="#c8a218"/><path d="m88.2388 62.0535c.0013-.0134.0013-.0134.0026-.0267-.0013.0133-.0013.0133-.0026.0267zm.0106-.0934c0-.0133.0013-.0266.0027-.04-.0014.0134-.0027.0267-.0027.04zm.0094-.0934c.0013-.0266.0026-.04.0039-.0533-.0013.0133-.0026.0267-.0039.0533zm.0066-.0799c.032-.36.052-.72.06-1.0934-.008.3734-.028.7334-.06 1.0934zm.0613-1.0934c0-.0266.0001-.0667.0014-.0933-.0013.0266-.0014.0667-.0014.0933zm.0014-.12c0-.0267.0013-.0399.0013-.0533 0 .0134-.0013.0266-.0013.0533zm.0013-.1199v-.0267zm0-.1068v-.0133z" fill="#fff"/><path d="m83.8133 71.4668c.3267-1.44.5173-2.92.5173-4.4667 0-11.04-8.9547-20-20.0013-20-.308 0-.6081.0401-.9134.0534.4707-.32.9627-.6 1.4654-.8667-5.3694-6.0266-13.172-9.8533-21.884-9.8533-2.412 0-4.748.32-6.988.8666 3.3866-3.36 7.8813-5.6 12.904-6.0933.6867-.0667 1.38-.1067 2.084-.1067.668 0 1.328.0533 1.9827.1067.316.0266.628.0666.94.1066.2346.0267.4666.0668.7013.1068 7.3746 1.2666 13.4546 6.3199 16.1693 13.0932h.088c.4787-.0533.9613-.0799 1.4507-.0799 8.8373 0 16 7.16 16 16v.0132.0801.0267.0667c0 .0133-.0013.0266-.0013.0532v.0267c-.0014.0267-.0014.0667-.0014.0934h-.0013c-.008.3733-.028.7333-.06 1.0933-.0014.0134-.0027.0266-.0027.0266-.0013.0133-.0026.0267-.004.0534-.0026.0133-.004.04-.0067.0534-.0013.0133-.0027.0266-.0027.04-.0026.0133-.0052.04-.0079.0666-.0013.0134-.0013.0134-.0027.0267-.0026.0267-.0053.0533-.0093.08-.4067 3.6133-2.0173 6.8533-4.416 9.3333zm-14.4547-26.84-.0827.0133z" fill="#eaf8f7"/><g fill="#2d3e68"><path d="m88.3306 60.3332h1.3334c-.0014-9.5734-7.76-17.3334-17.3307-17.3334-.572 0-1.128.0267-1.668.08l.1253 1.3333 1.2374-.4932c-3.3427-8.3467-11.492-14.2534-21.028-14.2534-11.568 0-21.088 8.6667-22.48 19.8534l1.3226.1733.152-1.3333-.1773-.0134-.1507-.0133c-8.1 0-14.668 6.5733-14.6693 14.6666 0 8.1067 6.5707 14.6667 14.6693 14.6667h42.7573.008c9.5254-.0533 17.2307-7.7867 17.2321-17.3333h-1.3334-1.3333c0 8.0666-6.5227 14.6266-14.5814 14.6666h.008-42.7573c-3.3173 0-6.3106-1.3333-8.4866-3.5066-2.1747-2.1867-3.516-5.1734-3.516-8.4934s1.3413-6.3066 3.516-8.4799c2.1773-2.1733 5.1693-3.5201 8.4866-3.5201v-1.3333l-.152 1.3201.1774.0265c.728.08 1.384-.4399 1.4746-1.1599 1.228-9.8666 9.6294-17.52 19.8334-17.52 8.4106 0 15.6 5.2133 18.5533 12.5733.22.5466.7747.8933 1.364.84.4747-.0534.9453-.08 1.416-.08 4.052 0 7.7093 1.64 10.368 4.2934 2.656 2.6666 4.2947 6.3199 4.296 10.3733z"/><path d="m22.1107 50.84c-7.0414-1.0667-12.44803-7.16-12.44403-14.5067 0-4.0533 1.63873-7.7067 4.29603-10.36 2.6573-2.6667 6.316-4.3066 10.3706-4.3066 7.3587 0 13.4574 5.4267 14.504 12.4933.108.7334.7854 1.2266 1.5134 1.1199.7293-.1066 1.232-.7866 1.124-1.5066-1.24-8.36-8.444-14.76-17.1414-14.7733-9.5733 0-17.3333 7.76-17.3333 17.3333.00267 8.68 6.3773 15.88 14.7107 17.1467.728.1066 1.408-.4 1.5187-1.12.1106-.7333-.3907-1.4134-1.1187-1.52"/></g></svg>