<svg fill="none" height="96" viewBox="0 0 96 96" width="96" xmlns="http://www.w3.org/2000/svg"><path d="m88.3307 62.6533c0-8.84-7.164-16-15.9973-16-.5214 0-1.0347.0266-1.5427.08-3.148-7.8534-10.8173-13.4133-19.7907-13.4133-10.8853 0-19.8466 8.16-21.1573 18.6933l-.1774-.0266c-7.3613 0-13.336 5.9733-13.336 13.3333 0 7.3733 5.9747 13.3333 13.336 13.3333h42.7587c8.792-.0533 15.9067-7.1866 15.9067-16z" fill="#d1efed"/><path d="m52.2867 78.6533h-22.6214c-7.3613 0-13.336-5.96-13.336-13.3333.0014 7.3733 5.976 13.3333 13.336 13.3333h22.3654z" fill="#e8e6f2"/><path d="m52.0307 78.6533h-22.3654c-7.36 0-13.3346-5.96-13.336-13.3333.0014-4.7067 2.4441-8.84 6.1321-11.2133h.0066.0054c1.7986-1.16 3.8867-1.8934 6.1373-2.0801h.016.0213c.3347-.0266.6733-.0399 1.0147-.0399l.3387.2266c-.2067 1.24-.3387 2.4934-.3387 3.7734 0 12.4266 9.988 22.5066 22.368 22.6666" fill="#bbdee4"/><path d="m88.2506 64.2666s0-.0133.0013-.0133c-.0013 0-.0013.0133-.0013.0133zm.008-.0932c.0014-.0134.0027-.0134.0027-.0267 0 .0133-.0013.0133-.0027.0267zm.0093-.0934c.0014-.0133.0027-.0266.0027-.04 0 .0134-.0013.0267-.0027.04zm.008-.0933c.0014-.0134.0027-.0401.0041-.0534-.0014.0133-.0027.04-.0041.0534zm.0054-.0667c.02-.2667.0346-.5333.0426-.8-.008.2667-.0226.5333-.0426.8zm.0426-.8c.0014-.04.0014-.0667.0027-.0934-.0013.0267-.0027.0534-.0027.0934zm.0027-.1201c0-.0266.0014-.0532.0014-.0799 0 .0267-.0014.0533-.0014.0799zm.0014-.1066c.0013-.0267.0013-.0399.0013-.0533 0 .0134 0 .0266-.0013.0533zm.0013-.1199s.0013-.0134.0013-.0267c0 .0133-.0013.0267-.0013.0267zm.0013-.1068v-.0133z" fill="#fff"/><path d="m83.8134 73.7866c.3267-1.44.5173-2.92.5173-4.4666 0-11.04-8.9547-20-20-20-.3093 0-.6094.04-.9147.0533.4693-.32.9627-.6 1.4654-.8666-5.3694-6.0267-13.172-9.8534-21.884-9.8534-2.412 0-4.7467.32-6.9893.8667 1.3653-1.36 2.9106-2.5333 4.5986-3.48 1.5427-.8667 3.204-1.5333 4.9533-2s0-.0001-.0013-.0134c1.0867-.28 2.2067-.48 3.3547-.6.6867-.0667 1.38-.1066 2.084-.1066.6693 0 1.3267.0533 1.9827.1066.316.0267.6279.0666.9399.1066.2347.0267.4667.0668.7.1068 7.376 1.2667 13.456 6.3199 16.1707 13.0932h.088c.4773-.0533.9613-.0799 1.452-.0799 8.836 0 15.9987 7.16 16 16v.0133.08c0 .0134-.0014.0267-.0014.0267v.0667c0 .0133.0001.0266-.0013.0533v.0267c0 .0266-.0013.0532-.0013.0799v.0267c-.0014.0267-.0014.0534-.0027.0934-.008.2666-.0226.5333-.0426.8l-.0013.0132c-.0014.0134-.0027.0401-.0041.0534-.0013.0134-.004.0401-.0053.0534 0 .0133-.0014.0266-.0027.04-.0027.0266-.004.04-.0066.0666 0 .0134-.0014.0134-.0027.0267-.0027.0267-.004.0533-.0067.08-.0013 0-.0013.0133-.0013.0133-.3707 3.68-1.9973 7-4.4373 9.52zm-14.4561-26.84-.0813.0133z" fill="#eaf8f7"/><path d="m29.8454 52.0133c1.0826-8.7066 7.4053-15.7866 15.7146-17.9733-.9733-9.3866-8.9093-16.7067-18.5613-16.7067-.3693 0-.7306.0267-1.096.0533.7 1.6134 1.096 3.4 1.096 5.2667 0 7.3733-5.968 13.3466-13.3333 13.3466-1.8774 0-3.6587-.4-5.27868-1.1066-.02.3733-.05469.7333-.05469 1.1066 0 8.7334 6.01597 16.0801 14.13597 18.1068h.0054c2.0773-1.3333 4.5426-2.1201 7.1946-2.1201z" fill="#ebf4fc"/><path d="m22.4586 54.1067c-.0253-.0133-.0493-.0134-.0733-.0267.024.0133.048.0134.0733.0267z" fill="#dddaec"/><path d="m22.4613 54.1067c-.0013 0-.0013 0-.0027 0zm6.1866-2.0801c.3374-.0267.6774-.04 1.02-.04l.092.0133-.092-.0133c-.3426 0-.6826.0133-1.02.04z" fill="#b0cfdc"/><path d="m22.4733 54.1067h-.0054c-.0026 0-.0053 0-.0066 0h.0066.0054c1.7986-1.16 3.8867-1.8934 6.1374-2.0801-2.2507.1867-4.3388.9201-6.1374 2.0801zm6.1533-2.0801h.0214c-.0067 0-.0147 0-.0214 0z" fill="#9fb9d1"/><path d="m22.4733 54.1067h-.0054c-.0026 0-.0053 0-.0066 0s-.0027 0-.0027 0c-.0253-.0133-.0493-.0134-.0733-.0267-.0187 0-.0373-.0001-.0547-.0134-.008 0-.0146 0-.0226 0-1.592-.4133-3.0947-1.0399-4.4921-1.8266.8174-.16 1.6574-.2534 2.5201-.2534l.1759.0267c1.308-10.5333 10.2707-18.6933 21.1547-18.6933 1.3134 0 2.5933.1333 3.84.36.0147.12.0413.24.0533.36-1.7493.4667-3.4106 1.1334-4.9533 2-5.7853 3.24-9.9067 9.0933-10.7613 15.9733l-.0854-.0134-.092-.0133c-.3426 0-.6826.0133-1.02.04-.0066 0-.0146 0-.0213 0-.0053 0-.0106 0-.016 0-2.2506.1867-4.3387.9201-6.1373 2.0801" fill="#c7cce7"/><g fill="#2d3e68"><path d="m46.8933 33.9467c-1.0213-10.0934-9.5373-17.9468-19.8933-17.9468-.4493 0-.8374.0268-1.1734.0534-.436.0267-.8293.2534-1.0586.6267-.2294.3733-.2627.8267-.0894 1.2267.632 1.4667.9867 3.0666.9881 4.7599-.0014 3.3067-1.3414 6.3067-3.5147 8.4801-2.176 2.1733-5.168 3.5066-8.4853 3.5199-1.6907-.0133-3.2894-.3599-4.75075-.9866-.40133-.1733-.8573-.1467-1.2293.08-.372.24-.60533.6266-.63066 1.0666-.01733.3334-.05599.72-.05599 1.1733.00267 9.36 6.4413 17.2267 15.1453 19.4.7147.1734 1.4387-.2533 1.616-.9733.1787-.7066-.256-1.4399-.9707-1.6132-7.536-1.88-13.12797-8.6935-13.1253-16.8135 0-.2933.02932-.6265.05332-1.0265l-1.33066-.0801-.5293 1.2267c1.77867.7733 3.74134 1.2133 5.80804 1.2133 8.1013-.0134 14.6653-6.5734 14.6653-14.6667.0013-2.0667-.436-4.0399-1.2054-5.8133l-1.2239.5334.0759 1.32c.3947-.0133.7294-.0534 1.0214-.0401 8.976-.0133 16.356 6.8134 17.24 15.5467.0746.7334.7293 1.2667 1.4613 1.2.732-.08 1.2667-.7333 1.192-1.4666"/><path d="m88.3307 62.6535h1.3333c-.0013-9.5734-7.7587-17.3334-17.3307-17.3334-.5706 0-1.1253.04-1.664.08l.124 1.3333 1.2374-.4932c-3.3427-8.3467-11.492-14.2534-21.0307-14.2534-11.5653.0133-21.088 8.6667-22.4773 19.8534l1.3226.1733.1373-1.3333-.1773-.0134-.1373-.0133c-8.1014 0-14.668 6.5733-14.668 14.6666 0 8.1067 6.568 14.6667 14.668 14.6667h42.7586.008c9.5254-.0533 17.2281-7.7867 17.2294-17.3333h-1.3333-1.3334c0 8.08-6.52 14.6266-14.5787 14.6666h.008-42.7586c-3.3174 0-6.3107-1.3333-8.4867-3.5066-2.1733-2.1867-3.5147-5.1734-3.516-8.4934.0013-3.3066 1.3427-6.3066 3.516-8.4799 2.1773-2.1733 5.1693-3.5201 8.4867-3.5201v-1.3333l-.136 1.3333.1773.0133c.72.08 1.3707-.4399 1.46-1.1599 1.2254-9.8666 9.6294-17.52 19.8307-17.52 8.4133 0 15.6027 5.2133 18.556 12.5733.22.5467.772.8933 1.3613.84.4773-.0534.948-.08 1.416-.08 4.0534 0 7.7107 1.64 10.368 4.2934 2.656 2.6666 4.2947 6.3199 4.296 10.3733z"/></g></svg>