<svg fill="none" height="96" viewBox="0 0 96 96" width="96" xmlns="http://www.w3.org/2000/svg"><path d="m70.7394 20.8917c-.2277 0-.4488.027-.6725.027-3.5848-7.9647-11.5778-13.53053-20.8862-13.53053-11.4997 0-20.9913 8.47673-22.6327 19.52763-1.3693-.4177-2.8194-.6468-4.3234-.6468-8.1884 0-14.82567 6.644-14.82567 14.8244 0 8.1938 6.63727 14.8243 14.82567 14.8243h48.3558.159c9.6736 0 17.517-7.83 17.517-17.5063 0-9.6762-7.8434-17.5197-17.517-17.5197" fill="#d1efed"/><path d="m50.523 55.9177h-28.2984c-8.1884 0-14.82567-6.6305-14.82567-14.8243 0-8.1804 6.63727-14.8244 14.82567-14.8244 1.4905 0 2.9285.2291 4.287.6334l.2156.0674c-.2992 1.5229-.4609 3.0861-.4609 4.6899 0 13.3958 10.8595 24.258 24.2567 24.258" fill="#bbdee4"/><path d="m88.0206 41.282c.155-.9299.2358-1.9003.2358-2.8707 0-.4582-.0175-.9029-.0512-1.3476h.0027c.0337.4312.0512.8895.0512 1.3342 0 .9838-.0822 1.9542-.2385 2.8841zm.1226-4.8922h-.0027c-.6347-5.5254-3.83-10.2557-8.369-12.9914h.0094c4.5363 2.7357 7.7302 7.466 8.3623 12.9914zm-9.586-13.6653h-.0121c-2.3503-1.1724-5.0012-1.8329-7.8057-1.8329-.2277 0-.4488.027-.6725.027.2251 0 .4448-.0404.6725-.0404 2.8086 0 5.4648.6604 7.8178 1.8463" fill="#fff"/><path d="m79.7808 23.3984h-.0094c-.3989-.2425-.8072-.4716-1.2264-.6738h.0122c.4177.2022.8261.4313 1.2236.6738z" fill="#c2ebee"/><path d="m88.2072 37.0635h-.0027c-.0173-.2291-.0387-.4582-.064-.6739h.0026c.0253.2157.0467.4448.0641.6739z" fill="#c2ebee"/><path d="m70.0668 20.9185c-.0121-.027-.0256-.0539-.0377-.0809.0121.027.0256.0539.0377.0809zm-.0539-.1213c-.0081-.0134-.0148-.027-.0229-.0405.0081.0135.0148.0271.0229.0405zm-.0431-.0943c-.0054-.0135-.0122-.0135-.0176-.0404.0054.0269.0122.0269.0176.0404zm-.0405-.081c-.0053-.0134-.0094-.0268-.0148-.0268.0054 0 .0095.0134.0148.0268zm-.0417-.0942c-.0014 0-.0027 0-.0041 0z" fill="#fff"/><path d="m83.8994 49.9338c.1941-1.1185.3167-2.264.3167-3.4499 0-11.1588-9.0509-20.2151-20.2164-20.2151-2.4608 0-4.8098.4717-6.9917 1.2669 1.5161-1.9137 3.4325-3.4771 5.6076-4.6361-5.6656-6.1993-13.8081-10.1075-22.8726-10.1075-2.0457 0-4.0376.2157-5.9715.593 3.0646-2.8031 6.8825-4.7842 11.1291-5.59281 1.3881-.24258 2.8152-.39087 4.2761-.39087.7911 0 1.5727.05396 2.3436.12134l.3423.0404c.535.05391 1.0606.14822 1.5849.24256 7.2868 1.37462 13.3513 6.19938 16.4362 12.72208h.004c.0094.0269.0175.0404.0269.0674.0054 0 .0095.0133.0149.0268.0067.0135.0148.0271.0229.0405.0053.027.0121.027.0175.0404.0068.0135.0135.0404.0202.0539.0081.0135.0148.027.0229.0405.0054.0135.0108.0269.0162.0404.0121.027.0256.0539.0377.0808.2237 0 .4448-.027.6725-.027 2.8045 0 5.4554.6605 7.8057 1.833.4192.2021.8275.4312 1.2264.6738 4.539 2.7358 7.7343 7.466 8.3691 12.9915.0256.2156.0471.4447.0647.6738.0337.4447.0512.8894.0512 1.3477 0 .9703-.0809 1.9407-.2359 2.8706-.5471 3.2883-2.0161 6.2531-4.1212 8.6519" fill="#eaf8f7"/><g fill="#2d3e68"><path d="m70.738 20.905v-1.3476c-.3328 0-.5686.0269-.7169.0269l.0485 1.3477 1.2277-.5526c-3.795-8.4364-12.261-14.32573-22.1152-14.32573-12.1802.01348-22.2299 8.98903-23.967 20.67333l1.3342.2021.3922-1.2938c-1.4919-.4447-3.0754-.7008-4.7155-.7008-8.9324 0-16.17204 7.237-16.17204 16.172 0 8.9351 7.23964 16.1721 16.17204 16.1721h48.3558.1562c10.4202 0 18.8675-8.4364 18.8688-18.8539-.0013-10.4175-8.4472-18.8673-18.8688-18.8673v1.3476 1.3477c4.4703 0 8.5052 1.8058 11.4364 4.7303 2.9285 2.9379 4.7357 6.9675 4.7371 11.4417-.0014 4.4608-1.8086 8.5038-4.7371 11.4283-2.9312 2.9244-6.9661 4.7302-11.4364 4.7302h-.1562-48.3558c-3.7263 0-7.086-1.4959-9.5294-3.9486-2.442-2.4393-3.94734-5.795-3.94869-9.5281.00135-3.7195 1.50669-7.0886 3.94869-9.5279 2.4434-2.4393 5.8031-3.9488 9.5294-3.9488 1.3692 0 2.6845.2022 3.9298.593.3719.1079.783.054 1.1132-.1481.3288-.2157.5552-.5661.6131-.9434 1.5431-10.3906 10.4769-18.38229 21.3-18.38229 8.7572 0 16.2785 5.22899 19.6584 12.73549.2251.5121.7278.8221 1.2763.7952.2992-.0135.5-.027.6212-.027z"/><path d="m9.04169 79.3267-2.69264 3.3692c-.46495.5795-.3706 1.4285.21024 1.8867.58085.4717 1.42851.3774 1.89345-.2021l2.69266-3.3692c.4649-.5795.3719-1.4286-.2103-1.9003-.5808-.4582-1.42846-.3638-1.89341.2157z"/><path d="m19.8204 65.8634-4.7775 5.9702c-.4649.5795-.3706 1.4285.2102 1.8867.5809.4717 1.4286.3774 1.8936-.2021l4.7774-5.9702c.465-.5795.372-1.4285-.2102-1.9002-.5809-.4582-1.4285-.3639-1.8935.2156z"/><path d="m20.8863 84.7308-2.1562 2.6953c-.465.5795-.3707 1.4285.2101 1.8867.5809.4717 1.4286.3774 1.8949-.2021l2.1549-2.6953c.465-.5795.3719-1.4285-.2089-1.9002-.5822-.4582-1.4298-.3639-1.8948.2156z"/><path d="m35.991 65.8634-8.5833 10.7139c-.465.5795-.3719 1.4286.2089 1.9003.5808.4582 1.4299.3638 1.8948-.2157l8.5833-10.714c.465-.5795.372-1.4284-.2089-1.9001-.5808-.4582-1.4299-.3639-1.8948.2156z"/><path d="m43.6269 76.5236-4.9325 6.1723c-.4649.5795-.3719 1.4285.2103 1.8867.5808.4717 1.4286.3774 1.8935-.2021l4.9324-6.1723c.465-.5795.372-1.4286-.2101-1.8868-.5809-.4717-1.4286-.3773-1.8936.2022z"/><path d="m52.1657 65.8633-2.1589 2.6954c-.465.5795-.3706 1.4285.2102 1.8867.5809.4717 1.4285.3774 1.8948-.2021l2.1577-2.6954c.4649-.5795.3719-1.4285-.2089-1.9001-.5809-.4583-1.4299-.364-1.8949.2155z"/><path d="m56.6804 80.4182-5.6049 7.0079c-.465.5795-.3706 1.4285.2102 1.8867.5809.4717 1.4286.3774 1.8949-.2021l5.6036-7.0079c.4649-.5795.3706-1.4285-.2103-1.8867-.5808-.4717-1.4285-.3774-1.8935.2021z"/><path d="m68.3378 65.8635-5.2518 6.5497c-.465.593-.3706 1.442.2102 1.9002.5809.4717 1.4286.3774 1.8949-.2156l5.2505-6.5497c.4649-.5795.3719-1.4285-.2089-1.9002-.5809-.4582-1.4299-.3639-1.8949.2156z"/></g></svg>