<svg fill="none" height="96" viewBox="0 0 96 96" width="96" xmlns="http://www.w3.org/2000/svg"><path d="m73.3721 36.6533c-2.612-6.2534-8.7894-10.6534-15.9974-10.6534-9.172 0-16.6587 7.1201-17.276 16.1334-.464-.0667-.924-.1467-1.4093-.1467-5.8907 0-10.6667 4.7867-10.6667 10.6667 0 5.8933 4.776 10.6666 10.6667 10.6666h34.6666c7.3627 0 13.332-5.96 13.332-13.3333 0-7.36-5.9626-13.32-13.3159-13.3333" fill="#d1efed"/><path d="m58.6761 63.3199h-19.9867c-5.8907 0-10.6667-4.7733-10.6667-10.6666 0-2.48.852-4.7733 2.28-6.5867h.0027c1.9547-2.4666 4.9746-4.0666 8.3746-4.0666.484 0 .9454.08 1.408.1333h.0014.0093l.0054-.0533.0906.0933c-.1093.8133-.1853 1.64-.1853 2.48 0 10.32 8.3587 18.6666 18.6667 18.6666" fill="#bbdee4"/><path d="m82.3653 59.7867c.2014-1.0133.3121-2.0533.3121-3.1333 0-8.8267-7.164-16-16-16-1.072 0-2.1174.12-3.1307.32 1.2973-1.4133 2.9-2.5333 4.692-3.28-4.3747-4.7333-10.6107-7.7067-17.5627-7.7067-1.7146 0-3.376.2134-4.9867.5601 3.0547-2.8 7.1107-4.5201 11.5787-4.5468h.004.1027c7.208 0 13.3853 4.4001 15.9973 10.6534.2813 0 .556.0267.8333.0533h.0014c6.96.44 12.4693 6.2134 12.4693 13.28 0 3.88-1.6653 7.36-4.3107 9.8" fill="#eaf8f7"/><path d="m38.6799 42.0001c.484 0 .9453.08 1.408.1333.3907-5.7066 3.54-10.64 8.124-13.5067l-.004-.0132c-2.0733-4.6667-6.756-7.9334-12.1973-7.9334-7.3654 0-13.3334 5.9734-13.3334 13.3334 0 5.32 3.1174 9.9199 7.624 12.0533h.004c1.9547-2.4667 4.9747-4.0667 8.3747-4.0667" fill="#fbca07"/><path d="m48.1786 28.5602c-.0026-.0134-.0053-.0133-.0093-.0266.004.0133.0067.0132.0093.0266z" fill="#e8e6f2"/><path d="m30.3052 46.0668h-.004c-1.372-.6534-2.592-1.5467-3.6586-2.6134 1.5813-.92 3.416-1.4666 5.3813-1.4666.484 0 .944.08 1.408.1466.5307-7.7466 6.14-14.0799 13.528-15.7199.4627.6666.872 1.3733 1.2093 2.1199.004.0134.0067.0133.0093.0267.0107.0133.0201.04.0294.0534l.004.0132c-1.7 1.0534-3.2027 2.4134-4.44 3.9734-.9093 1.1467-1.6747 2.4133-2.2707 3.7733-.0973.2267-.1893.4533-.276.6667-.6226 1.6-1.0146 3.3067-1.1373 5.0933-.4627-.0533-.924-.1333-1.408-.1333-3.4 0-6.42 1.6-8.3747 4.0667" fill="#dfb311"/><g fill="#2d3e68"><path d="m30.8733 44.84c-4.0573-1.92-6.864-6.0533-6.8626-10.84 0-3.32 1.3399-6.32 3.5133-8.4933 2.176-2.1733 5.168-3.5068 8.4867-3.5068 4.8986 0 9.1106 2.9334 10.9786 7.1468.2987.6666 1.0853.9733 1.7587.6666.6733-.2933.9773-1.08.6786-1.76-2.2786-5.1333-7.4306-8.72-13.4159-8.72-8.1014 0-14.6667 6.56-14.6667 14.6667.0013 5.8533 3.428 10.9066 8.3866 13.2533.6654.32 1.4601.0266 1.7761-.6267.3146-.6667.032-1.4666-.6334-1.7866"/><path d="m34.6799 7.33337v5.36003c0 .7333.596 1.3333 1.3334 1.3333.736 0 1.3333-.6 1.3333-1.3333v-5.36003c0-.73333-.5973-1.33333-1.3333-1.33333-.7374 0-1.3334.6-1.3334 1.33333z"/><path d="m14.692 32.6801h-5.35867c-.73733 0-1.33333.5867-1.33333 1.3334 0 .7333.596 1.3333 1.33333 1.3333h5.35867c.7373 0 1.3333-.6 1.3333-1.3333 0-.7467-.596-1.3334-1.3333-1.3334z"/><path d="m16.9866 16.8667 3.008 3.0134c.52.52 1.364.52 1.8853 0s.5213-1.3733 0-1.8933l-3.008-3c-.52-.52-1.3653-.52-1.8853 0-.5214.52-.5214 1.3599 0 1.8799z"/><path d="m53.1506 14.9868-3.0053 3c-.5214.52-.52 1.3733 0 1.8933.5213.52 1.3653.52 1.8853 0l3.0054-3.0134c.5213-.52.5213-1.3599 0-1.8799-.5214-.52-1.3654-.52-1.8854 0z"/><path d="m19.9946 48.1334-3.008 3.0134c-.5214.52-.5214 1.3599 0 1.8933.52.52 1.3653.52 1.8853 0l3.008-3.0134c.5213-.52.5213-1.36 0-1.8933-.5213-.52-1.3653-.52-1.8853 0z"/><path d="m73.3613 36.6403 1.2306-.5067c-2.8106-6.7466-9.4653-11.48-17.228-11.48-9.8786 0-17.9413 7.6666-18.6066 17.3733l1.3306.0934.1787-1.32c-.4306-.0533-.956-.1467-1.5867-.16-6.628 0-12 5.3733-12 12 0 6.64 5.372 12 12 12h34.6667c8.0987 0 14.6627-6.56 14.664-14.6667-.0013-8.0933-6.5573-14.6533-14.648-14.6667l-.0013 1.3334 1.2306-.5067-1.2306.5067-.0014 1.3333c6.6174.0133 11.9841 5.3867 11.9841 12-.0014 3.32-1.3414 6.32-3.5147 8.4934-2.176 2.1733-5.1667 3.5066-8.4827 3.5066h-34.6667c-2.5826 0-4.9066-1.04-6.6-2.7333-1.6906-1.6934-2.7333-4.0134-2.7333-6.6 0-2.5734 1.0413-4.9067 2.7333-6.6 1.6934-1.68 4.0187-2.7334 6.6-2.7334.336 0 .7334.0667 1.2307.1334.3667.0533.732-.0534 1.02-.2801.288-.24.4627-.5732.488-.9466.5693-8.32 7.4813-14.8933 15.9453-14.8933 6.6547 0 12.3547 4.0533 14.7667 9.8399.208.4934.6907.8134 1.2293.8134z"/><path d="m32.4013 70.3867-2.6666 2.6667c-.5214.52-.5214 1.36-.0014 1.88.5214.52 1.3654.52 1.8854 0l2.6666-2.6667c.5214-.52.5214-1.36.0014-1.88-.5214-.52-1.3654-.52-1.8854 0z"/><path d="m45.664 70.4533-8 9.3334c-.4786.56-.4146 1.4.1454 1.88.5587.48 1.4.4133 1.88-.1467l8-9.32c.4786-.56.4147-1.4133-.1453-1.88-.5587-.48-1.4001-.4267-1.8801.1333z"/><path d="m59.068 70.3867-2.6667 2.6667c-.5213.52-.5213 1.36-.0013 1.88.5213.52 1.3653.52 1.8853 0l2.6667-2.6667c.5213-.52.5213-1.36.0013-1.88-.5213-.52-1.3653-.52-1.8853 0z"/><path d="m72.3399 70.4536-9.3333 10.6667c-.4854.5467-.4294 1.3867.1253 1.88.5547.48 1.396.4267 1.8813-.1333l9.3333-10.6667c.4854-.5467.4294-1.3867-.1253-1.88-.5533-.48-1.396-.4267-1.8813.1333z"/><path d="m27.2867 80.2267c.3507 0 .6933-.1467.9427-.3867.248-.2533.3906-.6.3906-.9466 0-.3467-.1426-.6933-.3906-.9467-.2494-.24-.592-.3867-.9427-.3867-.352 0-.6946.1467-.944.3867-.248.2534-.3893.6-.3893.9467 0 .3466.1413.6933.3893.9466.2494.24.592.3867.944.3867z"/><path d="m33.8667 88.6534c.3506 0 .6946-.1333.9426-.3866s.3907-.5867.3907-.9467c0-.3467-.1427-.6933-.3907-.9333-.248-.2534-.592-.4-.9426-.4-.3507 0-.6947.1466-.9427.4-.248.24-.3907.5866-.3907.9333 0 .36.1427.6934.3907.9467s.592.3866.9427.3866z"/><path d="m53.9533 80.2267c.3507 0 .6934-.1467.9427-.3867.248-.2533.3907-.6.3907-.9466 0-.3467-.1427-.6933-.3907-.9467-.2493-.24-.592-.3867-.9427-.3867-.352 0-.6946.1467-.9439.3867-.248.2534-.3894.6-.3894.9467 0 .3466.1414.6933.3894.9466.2493.24.5919.3867.9439.3867z"/><path d="m60.536 88.6534c.3506 0 .6946-.1333.9426-.3866s.3907-.5867.3907-.9467c0-.3467-.1427-.6933-.3907-.9333-.248-.2534-.592-.4-.9426-.4-.3507 0-.6947.1466-.9427.4-.248.24-.3907.5866-.3907.9333 0 .36.1427.6934.3907.9467s.592.3866.9427.3866z"/></g></svg>