<svg fill="none" height="96" viewBox="0 0 96 96" width="96" xmlns="http://www.w3.org/2000/svg"><path d="m68.4466 56.3334c7.4934-.04 13.552-5.92 13.552-13.1733 0-7.2667-6.1013-13.1734-13.6266-13.1734-.4427 0-.8801.0267-1.3121.0667-2.6826-6.48-9.2173-11.04-16.8626-11.04-9.2733 0-16.9067 6.7066-18.0214 15.3733l-.1506-.0134c-6.2733 0-11.3587 4.9201-11.3587 10.9868 0 6.0666 5.0854 10.9733 11.3587 10.9733z" fill="#d1efed"/><path d="m20.6666 45.36v-.0667zm0-.1067v-.04zm.0013-.0667v-.04zm.0014-.0667v-.0399zm.0013-.08c0-.0133.0014-.0133.0014-.0266 0 .0133-.0014.0133-.0014.0266zm.0027-.0666c0-.0134.0013-.0267.0013-.04 0 .0133-.0013.0266-.0013.04zm.0026-.0667c0-.0133.0014-.0266.0014-.04 0 .0134-.0014.0267-.0014.04zm.0027-.0799c.0013 0 .0013-.0134.0027-.0267-.0014.0133-.0014.0267-.0027.0267zm.004-.0667c.0014-.0133.0013-.0134.0013-.0267 0 .0133.0001.0134-.0013.0267zm.004-.08c.0013 0 .0013-.0134.0013-.0134s0 .0134-.0013.0134zm.0054-.0667.0013-.0133zm.0053-.0667c0-.0133 0-.0133.0013-.0133-.0013 0-.0013 0-.0013.0133zm.0053-.08h.0013z" fill="#e8e6f2"/><path d="m49.9986 56.3334h-17.9733c-6.2733 0-11.3587-4.9067-11.3587-10.9733v-.0667-.04-.04s.0013-.0134.0013-.0267v-.04c0-.0133.0014-.0267.0014-.0267v-.0399c.0013-.0134.0013-.0268.0013-.0401s.0014-.0133.0014-.0266.0013-.0267.0013-.0401c0-.0133.0013-.0266.0013-.0399 0 0 .0013-.0134.0013-.0267 0-.0134.0014-.0267.0014-.04s.0013-.0266.0013-.04c.0013 0 .0013-.0133.0027-.0267 0-.0133.0013-.0266.0013-.0399.0014-.0134.0013-.0134.0013-.0267.0014-.0134.0027-.0267.0027-.0533.0013 0 .0013-.0134.0013-.0134.0013-.0133.0027-.04.0041-.0533l.0013-.0134c.0013-.0266.0027-.0399.004-.0533 0-.0133 0-.0133.0013-.0133.0013-.0267.0027-.04.004-.0667h.0013c.0014-.0267.0027-.04.0054-.0667.0026-.0266.004-.0533.0067-.0666.4186-4.3334 3.4413-7.9333 7.5399-9.32h.0014c.2173-.08.4373-.1467.6613-.2134.868-.2266 1.78-.3733 2.72-.4-.1906 1.0667-.3053 2.1467-.3053 3.2667 0 10.32 8.3573 18.6667 18.6653 18.6667" fill="#bbdee4"/><path d="m69.932 30.0668c-.0013 0-.0013 0-.0013 0zm-.0853-.0134c-.0027 0-.0054 0-.0094 0zm-.0853 0c-.0027 0-.0054 0-.008 0zm-.0854-.0133c-.008 0-.0173 0-.0253 0zm-.0853 0c-.0067 0-.0134 0-.02 0zm-.0867-.0133c-.0067 0-.012 0-.0173 0zm-.0866 0c-.0054 0-.0094 0-.0147 0zm-.0854-.0133c-.0107 0-.0227 0-.0333 0zm-.0867 0c-.0133 0-.0266 0-.0399 0zm-.0866-.0134c-.0133 0-.0267 0-.04 0zm-.0867 0c-.0146 0-.0293 0-.0427 0zm-.0867 0c-.0146 0-.0293 0-.0426 0zm-.0879-.0133c-.0214 0-.0427 0-.064 0zm-.0867 0c-.0213 0-.0414 0-.0627 0zm-.088 0c-.016 0-.0333 0-.0507 0zm-.0867 0c-.0213 0-.0427 0-.0627 0zm-.088 0c-.0147 0-.0293 0-.0426 0z" fill="#fff"/><path d="m79.3306 50.9733c-.0187-9.56-7.7707-17.3067-17.3307-17.3067-1.0653 0-2.104.1201-3.116.2934.72-.7733 1.5401-1.4534 2.4241-2.0401-4.1427-5.4133-10.64-8.9199-17.9747-8.9199-1.8947 0-3.7227.2666-5.48.7066 3.224-2.8933 7.5306-4.68 12.2786-4.6933 7.4373.0533 13.8267 4.4533 16.7787 10.7867h.0334l.1159.2533c.432-.04.8694-.0667 1.3121-.0667h.1333.0426.0254.0627.036.0506.0253.0627.0227.064c.0146 0 .0306.0134.0453.0134h.0426.044.0428.0466.04c.016 0 .0307 0 .0467.0133h.04.0533.0333c.024 0 .0467 0 .0707.0134h.0147.0693.0173c.0214 0 .0454-.0001.0667.0132h.02.06.0253c.0254 0 .052.0134.0774.0134h.008.076.0093c.028.0133.056.0133.084.0133h.0013c6.768.7467 12.028 6.2934 12.064 13.0267-.0013.2267-.016.4533-.0293.6933-.0053.12-.0093.2534-.02.3734-.2173 2.4933-1.128 4.7866-2.524 6.6933z" fill="#eaf8f7"/><path d="m32.1759 34.3866c.7587-5.8933 4.5427-10.8933 9.8053-13.48h-.0026c-.396-7.0133-6.2027-12.57331-13.312-12.57331-.3413 0-.6627.07998-.9987.10664.54 1.17334.8547 2.48007.8547 3.85337 0 5.16-4.176 9.3334-9.3334 9.3334-1.3426 0-2.6147-.2934-3.7707-.8134-.0186.2933-.0852.5733-.0852.8533 0 7.2267 5.7466 13.1067 12.9186 13.3334l.0053.0133c1.18-.4133 2.444-.64 3.768-.64z" fill="#ebf4fc"/><path d="m28.1613 35c-.0213 0-.0426 0-.064 0zm-.0946-.0133c-.012 0-.0227 0-.0347 0z" fill="#e8e6f2"/><path d="m41.9734 20.8134c-.0014-.0134-.0014-.0134-.0027-.0267.0013.0133.0013.0133.0027.0267z" fill="#e8e6f2"/><path d="m28.2573 35.0133-.0054-.0133c-.0027 0-.004 0-.0066 0-.0227 0-.0454 0-.0667 0-.0053 0-.012 0-.0173 0-.0213 0-.0427 0-.064 0-.0107 0-.0213-.0134-.0307-.0134-.012 0-.0227 0-.0347 0-2.0293-.0933-3.9346-.6533-5.628-1.5599.944-.24 1.9307-.3868 2.9547-.3868l.152.0134c1.028-8 7.6094-14.32 15.9054-15.2533.2893.96.4866 1.9466.5546 2.9866.0013.0133.0013.0134.0027.0267 0 .0133 0 .0133.0013.0266.0014.0134.0027.04.004.0667h.0027c-5.18 2.5467-8.928 7.4267-9.7667 13.2133-.008.0534-.016.1067-.0226.1601-.0014.0133-.0028.0133-.0041.0266-.004.0267-.008.0533-.012.08l-.1506-.0133c-1.324 0-2.588.2267-3.768.64" fill="#d4d9ee"/><g fill="#2d3e68"><path d="m27.6146 66.1732-3.3773 4.2134c-.46.5867-.368 1.4133.2067 1.88s1.4146.3733 1.8746-.2l3.3773-4.2267c.46-.5733.3681-1.4133-.2066-1.8667-.5747-.4666-1.4133-.3733-1.8747.2"/><path d="m40.9452 66.1734-12.1039 15.1201c-.46.5733-.3667 1.4132.208 1.8799.5746.4533 1.4133.3601 1.8733-.2133l12.104-15.12c.4613-.5734.368-1.4134-.2067-1.8667-.5747-.4667-1.4147-.3733-1.8747.2z"/><path d="m54.2813 66.1734-3.2787 4.1067c-.46.5733-.3666 1.4133.2081 1.8666.5746.4667 1.4146.3734 1.8746-.2l3.2787-4.1067c.46-.5733.3666-1.4133-.2094-1.8666-.5747-.4667-1.4133-.3734-1.8733.2"/><path d="m67.612 66.1734-12.104 15.1201c-.46.5733-.3666 1.4132.208 1.8799.5747.4533 1.4133.3601 1.8733-.2133l12.104-15.12c.4613-.5734.368-1.4134-.2066-1.8667-.5747-.4667-1.4147-.3733-1.8747.2z"/><path d="m20.116 79.0133c.352 0 .6947-.1466.944-.3866.248-.2534.3894-.6001.3894-.9467 0-.3467-.1414-.6934-.3894-.9467-.2493-.24-.592-.3867-.944-.3867-.3506 0-.6933.1467-.9427.3867-.248.2533-.3906.6-.3906.9467 0 .3466.1426.6933.3906.9467.2494.24.5921.3866.9427.3866z"/><path d="m24.908 89.6801c.352 0 .6947-.1467.9427-.4.2493-.24.3907-.5867.3907-.9334 0-.36-.1414-.6933-.3907-.9467-.248-.2533-.5907-.3866-.9427-.3866-.3506 0-.6947.1333-.9427.3866-.248.2534-.3906.5867-.3906.9467 0 .3467.1426.6934.3906.9334.248.2533.5921.4.9427.4z"/><path d="m46.7827 79.0133c.352 0 .6946-.1466.9439-.3866.248-.2534.3894-.6001.3894-.9467 0-.3467-.1414-.6934-.3894-.9467-.2493-.24-.5919-.3867-.9439-.3867-.3507 0-.6934.1467-.9427.3867-.248.2533-.3907.6-.3907.9467 0 .3466.1427.6933.3907.9467.2493.24.592.3866.9427.3866z"/><path d="m51.5747 89.6801c.352 0 .6946-.1467.9426-.4.2493-.24.3907-.5867.3907-.9334 0-.36-.1414-.6933-.3907-.9467-.248-.2533-.5906-.3866-.9426-.3866-.3507 0-.6947.1333-.9427.3866-.248.2534-.3907.5867-.3907.9467 0 .3467.1427.6934.3907.9334.248.2533.592.4.9427.4z"/><path d="m68.4373 56.3333.0067 1.3333c4.096-.0133 7.8159-1.64 10.5079-4.2533 2.6934-2.6133 4.3721-6.2533 4.3707-10.2533 0-4.0133-1.6893-7.6533-4.3987-10.2667-2.708-2.6266-6.4479-4.24-10.5626-4.24-.492 0-.9734.0266-1.44.0666l.128 1.3334 1.2307-.52c-2.8907-6.96-9.908-11.8533-18.0934-11.8533-9.924 0-18.1359 7.1867-19.3426 16.5467l1.3226.1733.1587-1.3334-.1506-.0133-.1601-.0134c-3.488 0-6.6613 1.3734-8.9586 3.6-2.2987 2.2134-3.7347 5.3068-3.7334 8.7201-.0013 3.4133 1.4347 6.5066 3.7334 8.72 2.2986 2.2266 5.472 3.5866 8.9586 3.5866h36.4227.0067l-.0067-1.3333v-1.3333h-36.4227c-2.7853 0-5.292-1.08-7.1053-2.84-1.812-1.7467-2.9187-4.1467-2.92-6.8 0-2.6533 1.108-5.0533 2.92-6.8 1.8147-1.76 4.32-2.8534 7.1053-2.8534v-1.3333l-.16 1.3333.152.0133c.7267.0934 1.388-.4266 1.4813-1.1599 1.0227-7.9733 8.0774-14.2134 16.6987-14.2134 7.1067 0 13.1574 4.2401 15.6307 10.2134.2253.5467.7747.8799 1.36.8133.396-.04.7907-.0534 1.184-.0534 3.412 0 6.484 1.3334 8.7093 3.4801 2.2227 2.16 3.584 5.1067 3.5854 8.36-.0014 3.2533-1.3534 6.1867-3.5627 8.3333-2.2107 2.1467-5.268 3.4933-8.664 3.5067h.008z"/><path d="m43.3093 20.84c-.436-7.72-6.8226-13.82664-14.6426-13.83998-.5494.01334-.9041.10664-1.0907.10664-.436.02667-.8307.28005-1.0533.65339-.224.37333-.248.83997-.0667 1.23997.4667 1.01338.7333 2.11998.7333 3.29338 0 2.2133-.8933 4.2-2.3426 5.6533-1.452 1.4533-3.4427 2.3467-5.6574 2.3467-1.1466 0-2.2307-.2534-3.2293-.6934-.4-.1733-.8587-.1466-1.2334.08-.3733.2267-.6106.6134-.6386 1.0534 0 .1333-.08.44-.088.9333.0013 7.96 6.32 14.4267 14.2107 14.6667.736.0266 1.3506-.5601 1.3746-1.2934.0227-.7333-.556-1.3466-1.292-1.3733-6.4533-.2-11.6293-5.4933-11.6266-12-.0094-.08.0466-.32.0826-.76l-1.3307-.08-.5413 1.2133c1.3134.5867 2.772.92 4.312.92 5.8934 0 10.6654-4.7733 10.6667-10.6666 0-1.5867-.3627-3.0667-.9747-4.41336l-1.212.55996.092 1.33333c.4854-.04.7707-.10664.9054-.10664 6.3973 0 11.6253 5.01331 11.9813 11.32001.0413.7333.6707 1.2933 1.4053 1.2533.736-.04 1.2973-.6667 1.256-1.4"/></g></svg>