<svg fill="none" height="96" viewBox="0 0 96 96" width="96" xmlns="http://www.w3.org/2000/svg"><path d="m70.9999 26.5998c-.2267 0-.4533.0267-.6667.0267-3.5466-7.88-11.4533-13.3866-20.6666-13.3866-11.3734 0-20.7734 8.3866-22.3867 19.3199-1.36-.4133-2.8-.64-4.28-.64-8.1066 0-14.66665 6.5734-14.66665 14.6667 0 8.1067 6.56005 14.6667 14.66665 14.6667h47.84.16c9.56 0 17.3199-7.7467 17.3199-17.3201 0-9.5733-7.7599-17.3333-17.3199-17.3333" fill="#d1efed"/><path d="m50.9999 61.2532h-28c-8.1066 0-14.66665-6.56-14.66665-14.6667 0-8.0933 6.56005-14.6667 14.66665-14.6667 1.4667 0 2.8933.2267 4.24.6267l.2133.0667c-.2934 1.5067-.4533 3.0533-.4533 4.64 0 13.2533 10.7467 24 24 24z" fill="#bbdee4"/><path d="m88.0798 46.8533c.16-.96.24-1.9334.24-2.9201 0-9.5733-7.7599-17.3333-17.3199-17.3333-.2267 0-.4534.0267-.6667.0267.2267 0 .44-.04.6667-.04 9.5733 0 17.3333 7.76 17.3333 17.3333 0 1-.0934 1.9734-.2534 2.9334zm-17.7466-20.2267c-.0133-.0267-.0268-.0533-.0401-.08.0133.0267.0268.0533.0401.08zm-.0534-.1199c-.0133-.0134-.0133-.0268-.0267-.0401.0134.0133.0134.0267.0267.0401zm-.04-.0934c-.0133-.0133-.0133-.0133-.0266-.04.0133.0134.0133.0267.0266.04zm-.0399-.0801c-.0134-.0133-.0134-.0266-.0267-.04.0133.0134.0133.0267.0267.04zm-.0401-.0932c-.0134 0-.0133-.0134-.0133-.0134s-.0001.0134.0133.0134z" fill="#fff"/><path d="m84.0132 55.3333c.2-1.1067.3201-2.24.3201-3.4133 0-11.04-8.96-20-20-20-2.44 0-4.7601.4667-6.9201 1.2534 1.4934-1.8934 3.3866-3.4401 5.5466-4.5868-5.6-6.1333-13.6665-10-22.6265-10-2.0267 0-4.0001.2134-5.9068.5868 3.0267-2.7734 6.8-4.7334 11-5.5334 1.3733-.24 2.7868-.3867 4.2401-.3867.7734 0 1.5466.0534 2.3199.1201l.3334.0399c.5333.0534 1.0533.1467 1.5733.24 7.2 1.36 13.2 6.1333 16.2534 12.5733 0 0-.0001.0134.0132.0134 0 .0267.0135.0399.0135.0533.0133.0133.0133.0266.0266.04 0 .0133.0133.0267.0133.0401.0134.0266.0134.0266.0267.0399 0 .0134.0133.04.0133.0533.0133.0133.0134.0268.0267.0401 0 .0133.0133.0266.0133.04.0133.0266.0267.0532.0401.0799.2133 0 .44-.0267.6666-.0267 9.56 0 17.32 7.76 17.32 17.3334 0 .9866-.08 1.96-.24 2.92-.5467 3.2133-2 6.1333-4.0667 8.48" fill="#eaf8f7"/><path d="m54.64 43.9202-19.64 21.3333h9.9466l-4.3333 18.6667 21.0534-22.6667h-9.8267z" fill="#f4f24c"/><g fill="#2d3e68"><path d="m61.6667 62.5867h9.3333c5.1467 0 9.8133-2.0533 13.1866-5.4133 3.3867-3.3467 5.4801-8.0001 5.4801-13.1468 0-10.3066-8.36-18.6666-18.6667-18.6666-.3333 0-.5601.0267-.7201.0267l.0534 1.3333 1.2133-.5466c-3.7467-8.3467-12.1333-14.1734-21.8799-14.1734-12.0534 0-21.9868 8.8933-23.7068 20.4533l1.32.2.3868-1.2799c-1.48-.44-3.04-.6934-4.6667-.6934-8.84 0-16 7.16-16 16 0 4.4134 1.78661 8.4 4.6799 11.28 2.8934 2.8666 6.9068 4.6267 11.3201 4.6267h15.6799c.7334 0 1.3334-.5867 1.3334-1.3334 0-.7333-.6-1.3333-1.3334-1.3333h-15.6799c-7.3867 0-13.33333-5.88-13.33333-13.24 0-3.68 1.47993-7.0133 3.90663-9.4267 2.4133-2.4133 5.7334-3.9066 9.4267-3.9066 1.3467 0 2.6533.2133 3.8799.5866.3734.1067.7867.0534 1.1067-.1466.32-.2134.5467-.56.6-.9334 1.5333-10.28 10.3734-18.1867 21.0801-18.1867 8.6666 0 16.1066 5.1867 19.4532 12.6.2267.4934.72.8134 1.2667.7867.2933-.0133.4801-.0267.6134-.0267 4.4133 0 8.4133 1.7868 11.3066 4.6801 2.8934 2.9067 4.6934 6.8933 4.6934 11.3199 0 8.8267-7.16 15.8934-16 15.8934h-.16-9.1733c-.7467 0-1.3334.6-1.3334 1.3333 0 .7467.5867 1.3334 1.3334 1.3334z"/><path d="m54.6399 43.92-.9733-.8933-19.6534 21.3333c-.36.3867-.4533.9466-.24 1.44.2133.48.6934.7867 1.2267.7867h8.28l-3.9734 17.04c-.1333.5866.1467 1.1867.68 1.48.5333.28 1.1867.1733 1.6-.28l21.0534-22.6667c.36-.3867.4533-.9467.24-1.4267-.2134-.4933-.6933-.8133-1.2133-.8133h-8.2667l2.5599-15.7867c.0933-.5733-.2-1.1466-.7333-1.4133-.5334-.2533-1.1599-.1333-1.5599.3067l.9733.8933-1.3067-.2133-2.8134 17.3334c-.0666.3866.0533.7866.3067 1.0799.2533.2934.6267.4667 1.0134.4667h6.76l-15.56 16.76 3.2133-13.7867c.0933-.4 0-.8133-.2533-1.1333s-.64-.5067-1.0534-.5067h-6.9066l17.5866-19.0933-.9866-.9067-1.3067-.2133z"/></g></svg>