<svg fill="none" height="96" viewBox="0 0 96 96" width="96" xmlns="http://www.w3.org/2000/svg"><path d="m70.9974 21.6801c-.2254 0-.4441.0267-.6641.0267-3.548-7.88-11.456-13.38658-20.664-13.38658-11.3773 0-20.7693 8.38658-22.3933 19.31988-1.3547-.4133-2.7893-.6399-4.276-.6399-8.1013 0-14.66931 6.5733-14.66931 14.6666 0 8.1067 6.56801 14.6667 14.66931 14.6667h47.84.1574c9.5693 0 17.3306-7.7467 17.3306-17.3201 0-9.5733-7.7613-17.3333-17.3306-17.3333" fill="#d1efed"/><path d="m50.996 56.3335h-27.996c-8.1013 0-14.66931-6.56-14.66931-14.6667 0-8.0933 6.56801-14.6666 14.66931-14.6666 1.4733 0 2.896.2267 4.24.6267l.2133.0666c-.296 1.5067-.4573 3.0533-.4573 4.64 0 13.2533 10.7454 24 24 24" fill="#bbdee4"/><path d="m88.0946 41.8535c.1534-.92.2334-1.8801.2334-2.8401 0-9.5733-7.7614-17.3333-17.3307-17.3333-.2253 0-.444.0267-.664.0267.2213 0 .4387-.04.664-.04 9.572 0 17.3333 7.76 17.3333 17.3333 0 .9734-.0813 1.9334-.236 2.8534zm-17.7613-20.1467c-.0133-.0267-.0253-.0533-.0387-.08.012.0267.0254.0533.0387.08zm-.0547-.1199c-.008-.0134-.0146-.0268-.0226-.0402.008.0134.0146.0268.0226.0402zm-.0426-.0934c-.0054-.0133-.012-.0133-.0174-.04.0054.0267.012.0267.0174.04zm-.04-.0801c-.0054-.0133-.0094-.0265-.0147-.0265.0053 0 .0093.0132.0147.0265zm-.0414-.0932c-.0013 0-.0026 0-.004 0z" fill="#fff"/><path d="m84.0173 50.4133c.192-1.1066.312-2.2399.312-3.4133 0-11.04-8.9534-20-19.9987-20-2.436 0-4.76.4668-6.9187 1.2534 1.5-1.8933 3.396-3.44 5.548-4.5867-5.604-6.1333-13.6613-10-22.6306-10-2.0214 0-3.9934.2134-5.9067.5867 3.032-2.7733 6.8093-4.7333 11.0107-5.5333 1.3733-.24 2.7853-.38672 4.2306-.38672.7827 0 1.5547.05339 2.3187.12005l.3387.03998c.5293.05333 1.0493.14664 1.568.23997 7.2093 1.36002 13.2093 6.13342 16.2613 12.58672h.004c.0093.0267.0187.04.0267.0667.0053 0 .0093.0132.0146.0265.0067.0134.0147.0268.0227.0401.0053.0267.012.0267.0173.04.0067.0133.0134.0399.02.0533.008.0133.0147.0267.0227.0401.0053.0133.0107.0266.016.0399.0133.0267.0253.0533.0386.08.22 0 .4387-.0267.6641-.0267 9.5693 0 17.3306 7.76 17.3306 17.3333 0 .96-.08 1.9201-.2333 2.8401-.5427 3.2534-1.9947 6.1999-4.0773 8.5599" fill="#eaf8f7"/><path d="m30.9999 65.6667c0 .7333-.5973 1.3333-1.3333 1.3333-.7373 0-1.3333-.6-1.3333-1.3333 0-.7334.596-1.3334 1.3333-1.3334.736 0 1.3333.6 1.3333 1.3334z" fill="#d1efed"/><path d="m41.664 71.0002c0 .7333-.5974 1.3333-1.3334 1.3333-.7373 0-1.3333-.6-1.3333-1.3333 0-.7334.596-1.3334 1.3333-1.3334.736 0 1.3334.6 1.3334 1.3334z" fill="#d1efed"/><path d="m44.3307 81.6667c0 .7466-.5973 1.3333-1.3333 1.3333-.7373 0-1.3333-.5867-1.3333-1.3333 0-.7334.596-1.3334 1.3333-1.3334.736 0 1.3333.6 1.3333 1.3334z" fill="#d1efed"/><path d="m57.6667 87.0002c0 .7466-.5974 1.3333-1.3334 1.3333-.7373 0-1.3333-.5867-1.3333-1.3333 0-.7334.596-1.3334 1.3333-1.3334.736 0 1.3334.6 1.3334 1.3334z" fill="#d1efed"/><path d="m68.3307 81.6799c0 .7333-.5973 1.3333-1.3333 1.3333-.7373 0-1.3333-.6-1.3333-1.3333 0-.7467.596-1.3334 1.3333-1.3334.736 0 1.3333.5867 1.3333 1.3334z" fill="#d1efed"/><path d="m30.9999 87.0002c0 .7333-.5973 1.3333-1.3333 1.3333-.7373 0-1.3333-.6-1.3333-1.3333 0-.7334.596-1.3334 1.3333-1.3334.736 0 1.3333.6 1.3333 1.3334z" fill="#d1efed"/><path d="m70.9974 68.3332c0 .7466-.5974 1.3333-1.3334 1.3333-.7373 0-1.3333-.5867-1.3333-1.3333 0-.7334.596-1.3334 1.3333-1.3334.736 0 1.3334.6 1.3334 1.3334z" fill="#d1efed"/><path d="m54.9974 76.3332c0 .7466-.5974 1.3333-1.3334 1.3333-.7373 0-1.3333-.5867-1.3333-1.3333 0-.7334.596-1.3334 1.3333-1.3334.736 0 1.3334.6 1.3334 1.3334z" fill="#d1efed"/><path d="m25.664 76.3332c0 .7333-.5974 1.3333-1.3334 1.3333-.7373 0-1.3333-.6-1.3333-1.3333 0-.7334.596-1.3334 1.3333-1.3334.736 0 1.3334.6 1.3334 1.3334z" fill="#d1efed"/><path d="m57.6667 65.6667c0 .7333-.5974 1.3333-1.3334 1.3333-.7373 0-1.3333-.6-1.3333-1.3333 0-.7334.596-1.3334 1.3333-1.3334.736 0 1.3334.6 1.3334 1.3334z" fill="#d1efed"/><g fill="#2d3e68"><path d="m70.9974 21.6933v-1.3333c-.324 0-.5627.0267-.7254.04l.0627 1.32 1.216-.5467c-3.7547-8.3467-12.1307-14.17331-21.88-14.17331-12.0507.01333-21.9933 8.89341-23.712 20.45341l1.32.2.3893-1.2667c-1.4773-.4533-3.044-.7068-4.668-.7068-8.8373 0-16 7.1734-16 16 0 8.84 7.1627 16 16 16h47.8427.1547c10.308 0 18.6653-8.3466 18.6666-18.6532-.0013-10.3067-8.3573-18.6667-18.6666-18.6667v1.3333 1.3334c4.4213 0 8.4133 1.7866 11.3133 4.6799 2.8973 2.9067 4.6853 6.8934 4.6867 11.3201-.0014 4.4133-1.7894 8.4133-4.6867 11.3066-2.9 2.8934-6.8907 4.68-11.3133 4.68h-.1547-47.8427c-3.6853 0-7.0107-1.48-9.428-3.9067-2.416-2.4133-3.90533-5.7333-3.90533-9.4267 0-3.68 1.48933-7.0132 3.90533-9.4265 2.4173-2.4134 5.7427-3.9068 9.428-3.9068 1.3547 0 2.656.2134 3.888.5867.3694.1067.776.0534 1.1014-.1466.3266-.2133.5506-.56.608-.9333 1.5266-10.28 10.3653-18.18675 21.0733-18.18675 8.664 0 16.104 5.18665 19.4493 12.61325.224.4934.7307.8001 1.2774.7735.2813-.0134.4746-.0267.6-.0267z"/><path d="m31 65.6668h-1.3333 1.3333 1.3333c-.0013-1.4666-1.1933-2.6666-2.6666-2.6666-1.4734 0-2.6667 1.2-2.6667 2.6666 0 1.48 1.1933 2.6667 2.6667 2.6667 1.4733 0 2.6653-1.1867 2.6666-2.6667z"/><path d="m41.6641 70.9998h-1.3334 1.3334 1.3333c-.0013-1.4666-1.1933-2.6666-2.6667-2.6666-1.4733 0-2.6666 1.2-2.6666 2.6666 0 1.48 1.1933 2.6667 2.6666 2.6667 1.4734 0 2.6654-1.1867 2.6667-2.6667z"/><path d="m44.3307 81.6668h-1.3333 1.3333 1.3333c-.0013-1.4666-1.1933-2.6666-2.6666-2.6666-1.4734 0-2.6667 1.2-2.6667 2.6666 0 1.48 1.1933 2.6667 2.6667 2.6667 1.4733 0 2.6653-1.1867 2.6666-2.6667z"/><path d="m57.6667 86.9998h-1.3333 1.3333 1.3334c-.0014-1.4666-1.1934-2.6666-2.6667-2.6666s-2.6667 1.2-2.6667 2.6666c0 1.48 1.1934 2.6667 2.6667 2.6667s2.6653-1.1867 2.6667-2.6667z"/><path d="m68.3307 81.68h-1.3333 1.3333 1.3333c-.0013-1.48-1.1933-2.6667-2.6666-2.6667-1.4734 0-2.6667 1.1867-2.6667 2.6667 0 1.4667 1.1933 2.6533 2.6667 2.6667 1.4733-.0134 2.6653-1.2 2.6666-2.6667z"/><path d="m31 86.9998h-1.3333 1.3333 1.3333c-.0013-1.4666-1.1933-2.6666-2.6666-2.6666-1.4734 0-2.6667 1.2-2.6667 2.6666 0 1.48 1.1933 2.6667 2.6667 2.6667 1.4733 0 2.6653-1.1867 2.6666-2.6667z"/><path d="m70.9973 68.3333h-1.3333 1.3333 1.3333c-.0013-1.4666-1.1933-2.6666-2.6666-2.6666-1.4734 0-2.6667 1.2-2.6667 2.6666 0 1.48 1.1933 2.6667 2.6667 2.6667 1.4733 0 2.6653-1.1867 2.6666-2.6667z"/><path d="m54.9973 76.3333h-1.3333 1.3333 1.3333c-.0013-1.4666-1.1933-2.6666-2.6666-2.6666-1.4734 0-2.6667 1.2-2.6667 2.6666 0 1.48 1.1933 2.6667 2.6667 2.6667 1.4733 0 2.6653-1.1867 2.6666-2.6667z"/><path d="m25.6641 76.3333h-1.3334 1.3334 1.3333c-.0013-1.48-1.1933-2.6666-2.6667-2.6666-1.4733 0-2.6666 1.1866-2.6666 2.6666s1.1933 2.6667 2.6666 2.6667c1.4734 0 2.6654-1.1867 2.6667-2.6667z"/><path d="m57.6667 65.6668h-1.3333 1.3333 1.3334c-.0014-1.4666-1.1934-2.6666-2.6667-2.6666s-2.6667 1.2-2.6667 2.6666c0 1.48 1.1934 2.6667 2.6667 2.6667s2.6653-1.1867 2.6667-2.6667z"/></g></svg>