<svg fill="none" height="96" viewBox="0 0 96 96" width="96" xmlns="http://www.w3.org/2000/svg"><path d="m85.5894 57.3333c1.7266-2.6934 2.7412-5.8801 2.7412-9.3201 0-9.5733-7.7612-17.3333-17.3306-17.3333-.224 0-.444.0267-.6653.0267-3.5467-7.88-11.4547-13.3866-20.664-13.3866-11.3774 0-20.768 8.3866-22.392 19.3199-1.3547-.4133-2.7894-.64-4.2774-.64-8.1013 0-14.66793 6.5734-14.66793 14.6667 0 2.4133.58932 4.6667 1.61465 6.6667z" fill="#d1efed"/><path d="m33.1467 57.3333h-23.19868c-1.02533-2-1.61465-4.2534-1.61465-6.6667 0-8.0933 6.56663-14.6667 14.66793-14.6667 1.4747 0 2.8974.2267 4.2401.6267l.2146.0667c-.2946 1.5066-.456 3.0533-.456 4.64 0 6.16 2.3361 11.76 6.1467 16" fill="#bbdee4"/><path d="m88.0306 51.2131c.196-1.04.3-2.1066.3-3.2 0-9.5733-7.7612-17.3333-17.3306-17.3333-.224 0-.444.0267-.6653.0267.2226 0 .4413-.04.6653-.04 9.572 0 17.3321 7.76 17.3321 17.3334 0 1.1066-.1028 2.1732-.3015 3.2132zm-17.6959-20.5066c-.012-.0267-.0254-.0533-.0387-.08.0133.0267.0267.0533.0387.08zm-.0507-.1066c-.008-.0267-.0187-.04-.0267-.0667.0093.0267.0174.04.0267.0667zm-.0413-.0934c-.0094-.0133-.0174-.0399-.0254-.0533.008.0134.0174.04.0254.0533zm-.04-.0934c-.0093-.0133-.0187-.0266-.0267-.0532.008.0266.0174.0399.0267.0532zm-.0413-.0799c-.0094-.0267-.02-.04-.0307-.0667.0107.0267.0213.04.0307.0667zm-.0401-.08c-.0133-.04-.0266-.0667-.04-.0933.0134.0266.0267.0667.04.0933zm-.0573-.12c-.008-.0133-.0146-.0401-.0226-.0534.008.0133.0146.0401.0226.0534zm-.0454-.0934c-.0053-.0133-.0106-.0266-.0159-.0399.0053.0133.0106.0266.0159.0399zm-.0426-.0933c-.004 0-.008-.0133-.012-.0266.004.0133.008.0266.012.0266zm-.0426-.08c-.0014 0-.0027-.0133-.0041-.0133.0014 0 .0027.0133.0041.0133z" fill="#fff"/><path d="m85.5733 57.3333h-1.3054c.0334-.44.0654-.88.0654-1.3334 0-11.04-8.9547-20-20.0014-20-2.4346 0-4.7586.4667-6.9173 1.2534 1.5-1.8933 3.396-3.4534 5.548-4.5867-5.604-6.1333-13.6613-10-22.6293-10-2.024 0-3.996.2134-5.908.5867 3.032-2.7733 6.8093-4.7333 11.012-5.5333 1.372-.24 2.784-.3868 4.228-.3868.7853 0 1.5573.0534 2.3213.1201l.3387.04c.528.0533 1.048.1466 1.5667.2399 7.0373 1.3334 12.9213 5.9068 16.0373 12.1201.0013 0 .0027.0133.004.0133.0107.0133.02.04.0307.0534.004.0133.0079.0265.0119.0265.0094.0267.0174.0401.0267.0534.0054.0134.0107.0267.016.04.008.0133.0147.0266.0227.04.008.0133.0147.04.0227.0534.0053.0133.012.0133.0173.0266.0133.0267.0266.0534.04.0934.0026 0 .0067.0133.0093.0133.0107.0267.0214.04.0307.0667.0053.0133.0093.0266.0146.0266.008.0267.0174.04.0267.0533.004.0133.0094.0268.0147.0401.008.0133.016.0399.0253.0533.004.0133.0093.0267.0147.0267.008.0266.0187.04.0267.0666.004 0 .0079.0134.0119.0267.0134.0267.0267.0533.0387.08.2213 0 .4414-.0267.6654-.0267 9.5693 0 17.3306 7.76 17.3306 17.3333 0 1.0933-.104 2.16-.3 3.2-.4227 2.2133-1.2747 4.2934-2.4573 6.1201" fill="#eaf8f7"/><g fill="#2d3e68"><path d="m89.6668 48.0266c-.0014-10.32-8.3574-18.6666-18.6667-18.6666-.324 0-.5627.0267-.7253.0267l.0626 1.3333 1.216-.5467c-3.7547-8.3467-12.132-14.1734-21.8827-14.1734-12.048.0134-21.9906 8.8801-23.712 20.4534l1.32.2.3881-1.28c-1.476-.44-3.044-.6934-4.664-.6934-8.3454 0-15.19604 6.3867-15.93604 14.5333-.06534.7334.47467 1.3867 1.208 1.4534.73334.0667 1.38265-.4799 1.44799-1.2133.61465-6.7733 6.32665-12.1067 13.28005-12.1067 1.352 0 2.6546.2133 3.8866.5867.3693.1066.7746.0534 1.1013-.1466.3253-.2134.5494-.56.6067-.9334 1.5294-10.28 10.368-18.1867 21.0733-18.1867 8.6667 0 16.1067 5.1733 19.452 12.6.224.5067.7307.8134 1.2774.7867.2813-.0133.4747-.0267.6-.0267 4.4213 0 8.4133 1.7867 11.3133 4.68 2.8973 2.9067 4.6854 6.8934 4.6867 11.32 0 .7334.596 1.3334 1.3333 1.3334.736 0 1.3334-.6 1.3334-1.3334"/><path d="m8.33333 58.6799h79.99997c.736 0 1.3334-.6 1.3334-1.3333 0-.7467-.5974-1.3333-1.3334-1.3333h-79.99997c-.73733 0-1.33333.5866-1.33333 1.3333 0 .7333.596 1.3333 1.33333 1.3333"/><path d="m16.3374 69.333h66.6599c.736 0 1.3334-.5867 1.3334-1.3333 0-.7334-.5974-1.3334-1.3334-1.3334h-66.6599c-.736 0-1.3334.6-1.3334 1.3334 0 .7466.5974 1.3333 1.3334 1.3333"/><path d="m21.6733 80h21.3027c.736 0 1.3333-.5867 1.3333-1.3333 0-.7334-.5973-1.3334-1.3333-1.3334h-21.3027c-.736 0-1.3333.6-1.3333 1.3334 0 .7466.5973 1.3333 1.3333 1.3333z"/><path d="m53.684 80h26.6387c.736 0 1.3333-.5867 1.3333-1.3333 0-.7334-.5973-1.3334-1.3333-1.3334h-26.6387c-.736 0-1.3333.6-1.3333 1.3334 0 .7466.5973 1.3333 1.3333 1.3333"/></g></svg>